<svg xmlns="http://www.w3.org/2000/svg" xmlns:xlink="http://www.w3.org/1999/xlink" version="1.1" x="0px" y="0px" viewBox="0 0 512 640" enable-background="new 0 0 512 512" xml:space="preserve"><g><path fill="#000000" d="M458.672,335.986c29.453,0,53.328-23.875,53.328-53.312c0-29.469-23.875-53.344-53.328-53.344h-21.344   c0-100.148-81.172-181.336-181.328-181.336S74.672,129.182,74.672,229.33H53.328C23.875,229.33,0,253.205,0,282.674   c0,29.438,23.875,53.312,53.328,53.312h56.891l22.438,33.656L56.5,445.799c-4.172,4.156-4.172,10.906,0,15.078   c4.156,4.172,10.922,4.172,15.078,0l82.219-82.203h91.531v74.656c0,2.719,1.047,5.469,3.125,7.547   c4.172,4.172,10.922,4.172,15.094,0c2.078-2.078,3.125-4.828,3.125-7.547v-74.656h91.578l82.219,82.203   c4.156,4.172,10.906,4.172,15.078,0s4.172-10.922,0-15.078l-76.172-76.188l22.406-33.625H458.672z M108.562,167.057   c8.062-19.047,19.594-36.164,34.297-50.867c14.703-14.695,31.812-26.234,50.859-34.297C213.438,73.557,234.391,69.33,256,69.33   s42.562,4.227,62.281,12.562c19.047,8.062,36.156,19.602,50.859,34.297c14.703,14.703,26.234,31.82,34.297,50.867   C411.766,186.768,416,207.721,416,229.33h-20.844c0-76.852-62.312-139.148-139.156-139.148c-5.891,0-10.672,4.773-10.672,10.664   S250.109,111.51,256,111.51c31.469,0,61.062,12.258,83.312,34.508c22.25,22.258,34.5,51.844,34.5,83.312H96   C96,207.721,100.219,186.768,108.562,167.057z M53.328,314.674c-17.641,0-32-14.375-32-32c0-17.656,14.359-32.008,32-32.008   h405.344c17.641,0,32,14.352,32,32.008c0,17.625-14.359,32-32,32H53.328z M202.672,357.33v-21.344h42.656v21.344H202.672z    M181.328,357.33h-31.25l-14.219-21.344h45.469V357.33z M266.672,335.986h42.656v21.344h-42.656V335.986z M330.672,335.986h45.469   l-14.219,21.344h-31.25V335.986z"/><path fill="#000000" d="M128,271.986c-5.891,0-10.672,4.781-10.672,10.688c0,5.875,4.781,10.656,10.672,10.656   s10.672-4.781,10.672-10.656C138.672,276.768,133.891,271.986,128,271.986z"/><path fill="#000000" d="M213.328,271.986c-5.891,0-10.656,4.781-10.656,10.688c0,5.875,4.766,10.656,10.656,10.656   S224,288.549,224,282.674C224,276.768,219.219,271.986,213.328,271.986z"/><path fill="#000000" d="M298.672,271.986c-5.891,0-10.672,4.781-10.672,10.688c0,5.875,4.781,10.656,10.672,10.656   s10.656-4.781,10.656-10.656C309.328,276.768,304.562,271.986,298.672,271.986z"/><path fill="#000000" d="M384,271.986c-5.891,0-10.672,4.781-10.672,10.688c0,5.875,4.781,10.656,10.672,10.656   s10.672-4.781,10.672-10.656C394.672,276.768,389.891,271.986,384,271.986z"/></g><text x="0" y="527" fill="#000000" font-size="5px" font-weight="bold" font-family="'Helvetica Neue', Helvetica, Arial-Unicode, Arial, Sans-serif">Created by lastspark</text><text x="0" y="532" fill="#000000" font-size="5px" font-weight="bold" font-family="'Helvetica Neue', Helvetica, Arial-Unicode, Arial, Sans-serif">from the Noun Project</text></svg>